<svg xmlns="http://www.w3.org/2000/svg" width="550" height="550" viewBox="0 0 48 48"><path fill="#ffe082" d="M27.015 46.507 9.493 28.986a1.392 1.392 0 0 1 0-1.969L27.015 9.494a1.392 1.392 0 0 1 1.969 0l17.523 17.522a1.392 1.392 0 0 1 0 1.969L28.985 46.507a1.395 1.395 0 0 1-1.97 0z"/><path fill="none" stroke="#18193f" stroke-linecap="round" stroke-linejoin="round" stroke-miterlimit="10" stroke-width="3" d="m28.916 38.576-3.931 3.932a1.395 1.395 0 0 1-1.97 0L5.493 24.986a1.392 1.392 0 0 1 0-1.969l9.017-9.018M18.619 9.89l4.396-4.396a1.392 1.392 0 0 1 1.969 0l17.523 17.522a1.392 1.392 0 0 1 0 1.969l-9.378 9.379"/><circle cx="24" cy="32.73" r="2.91" fill="#18193f"/><circle cx="32.73" cy="24.001" r="2.91" fill="#18193f"/><circle cx="24" cy="15.271" r="2.91" fill="#18193f"/><path fill="none" stroke="#18193f" stroke-linecap="round" stroke-linejoin="round" stroke-miterlimit="10" stroke-width="3" d="M24 32.73V15.271M32.73 24.001 18.62 9.891"/></svg>